<svg xmlns="http://www.w3.org/2000/svg" xmlns:xlink="http://www.w3.org/1999/xlink" width="500" zoomAndPan="magnify" viewBox="0 0 375 374.999991" height="500" preserveAspectRatio="xMidYMid meet" version="1.0"><defs><g/><clipPath id="id1"><path d="M 40 42.066406 L 335 42.066406 L 335 333.066406 L 40 333.066406 Z M 40 42.066406 " clip-rule="nonzero"/></clipPath><clipPath id="id2"><path d="M 0 157.679688 L 375 157.679688 L 375 217.679688 L 0 217.679688 Z M 0 157.679688 " clip-rule="nonzero"/></clipPath></defs><rect x="-37.5" width="450" fill="#000000" y="-37.499999" height="449.999989" fill-opacity="1"/><rect x="-37.5" width="450" fill="#ffffff" y="-37.499999" height="449.999989" fill-opacity="1"/><rect x="-37.5" width="450" fill="#000000" y="-37.499999" height="449.999989" fill-opacity="1"/><g clip-path="url(#id1)"><path fill="#d9d9d9" d="M 187.46875 42.121094 C 182.121094 42.121094 176.839844 42.421875 171.636719 42.972656 C 157.992188 44.078125 145.652344 46.605469 137.316406 50.378906 L 137.28125 50.394531 L 137.265625 50.394531 C 136.898438 50.636719 136.652344 50.855469 136.296875 51.09375 C 131.757812 52.390625 127.582031 54.167969 123.761719 56.390625 C 74.578125 79.710938 40.515625 129.1875 40.070312 186.539062 L 40.019531 186.691406 L 40.019531 186.777344 C 40.019531 186.957031 40.054688 187.125 40.054688 187.304688 C 40.054688 187.425781 40.039062 187.542969 40.039062 187.660156 C 40.039062 215.90625 48.230469 242.261719 62.351562 264.585938 C 63.621094 267.648438 65.660156 270.582031 68.371094 273.390625 C 87.957031 299.855469 116.371094 319.542969 149.320312 328.25 C 161.496094 331.464844 174.273438 333.203125 187.46875 333.203125 C 191.953125 333.203125 196.382812 332.976562 200.765625 332.589844 C 200.914062 332.574219 201.0625 332.582031 201.207031 332.554688 C 206.089844 332.109375 210.898438 331.433594 215.628906 330.53125 C 226.34375 328.855469 236.214844 326.113281 243.878906 322.136719 C 262.023438 314.703125 278.347656 303.804688 291.988281 290.261719 L 292.109375 290.144531 C 299.359375 283.390625 305.609375 275.71875 310.800781 267.363281 C 326.023438 244.464844 334.898438 217.089844 334.898438 187.664062 C 334.898438 156.109375 324.6875 126.910156 307.378906 103.0625 L 306.769531 102.226562 C 290.628906 80.3125 268.464844 63.015625 242.671875 52.714844 C 242.65625 52.707031 242.636719 52.703125 242.621094 52.699219 C 232.890625 47.679688 219.648438 44.660156 205.617188 43.265625 C 199.664062 42.542969 193.617188 42.125 187.46875 42.125 Z M 184.492188 43.023438 C 187.136719 42.988281 189.808594 43 192.46875 43.074219 C 196.339844 43.183594 200.183594 43.445312 204 43.789062 C 204.65625 43.863281 205.300781 43.964844 205.953125 44.046875 C 201.179688 44.5625 195.738281 47.414062 189.679688 52.574219 C 189.640625 52.582031 189.601562 52.585938 189.5625 52.59375 C 189.042969 52.445312 188.550781 52.277344 188.03125 52.132812 L 187.945312 52.097656 L 187.859375 52.117188 L 186.398438 52.441406 C 184.285156 49.703125 182.257812 47.425781 180.394531 46.039062 C 178.4375 44.582031 176.585938 43.832031 174.867188 43.773438 C 174.292969 43.753906 173.726562 43.8125 173.183594 43.945312 C 171.007812 44.472656 169.132812 46.179688 167.519531 48.828125 C 167.414062 49.003906 167.335938 49.261719 167.230469 49.441406 C 162.949219 48.875 158.8125 48.519531 154.917969 48.523438 C 150.804688 48.53125 146.976562 48.9375 143.285156 49.546875 C 152.609375 46.640625 162.3125 44.632812 172.332031 43.621094 L 172.453125 43.601562 C 176.394531 43.300781 180.402344 43.078125 184.492188 43.023438 Z M 174.851562 44.453125 C 176.398438 44.503906 178.105469 45.183594 179.984375 46.582031 C 181.726562 47.875 183.664062 50.027344 185.683594 52.609375 C 185.15625 52.726562 184.644531 52.851562 184.117188 52.96875 C 178.445312 51.386719 173.054688 50.242188 167.945312 49.527344 C 168.003906 49.429688 168.039062 49.28125 168.097656 49.1875 C 169.65625 46.628906 171.417969 45.078125 173.351562 44.609375 C 173.835938 44.488281 174.332031 44.4375 174.851562 44.453125 Z M 207.894531 44.609375 C 208.707031 44.621094 209.492188 44.714844 210.257812 44.863281 C 213.542969 45.5 216.453125 47.390625 219.015625 50.328125 C 218.332031 50.304688 217.703125 50.222656 217.011719 50.210938 C 209.023438 50.058594 200.332031 50.785156 190.988281 52.355469 C 197.4375 47.066406 203.089844 44.53125 207.894531 44.609375 Z M 213.269531 45.136719 C 223.417969 46.914062 233.207031 49.703125 242.519531 53.425781 C 243.230469 53.796875 243.839844 54.226562 244.511719 54.617188 C 237.199219 52.207031 228.96875 50.804688 219.9375 50.394531 C 217.945312 47.992188 215.730469 46.199219 213.269531 45.136719 Z M 147.726562 47.519531 C 147.152344 47.675781 146.578125 47.832031 146.007812 47.996094 C 146.574219 47.832031 147.140625 47.675781 147.726562 47.519531 Z M 154.9375 49.1875 C 158.726562 49.183594 162.761719 49.542969 166.925781 50.089844 C 166.15625 51.535156 165.4375 53.203125 164.785156 55.09375 C 147.992188 57.15625 133.304688 60.714844 120.515625 65.5 C 123.84375 61.335938 129.132812 56.773438 136.398438 51.878906 C 136.914062 51.6875 137.429688 51.5 137.945312 51.316406 C 143.148438 49.972656 148.765625 49.191406 154.9375 49.1875 Z M 167.625 50.175781 C 172.390625 50.835938 177.417969 51.871094 182.691406 53.289062 L 181.261719 53.613281 C 175.84375 53.941406 170.574219 54.390625 165.53125 54.992188 C 166.179688 53.15625 166.875 51.550781 167.625 50.175781 Z M 216.992188 50.871094 C 217.894531 50.890625 218.710938 51.007812 219.597656 51.042969 C 220.90625 52.667969 222.078125 54.699219 223.199219 56.882812 C 213.84375 55.246094 203.761719 54.132812 192.929688 53.582031 C 192.296875 53.390625 191.664062 53.203125 191.023438 53.019531 C 200.359375 51.449219 209.035156 50.726562 216.992188 50.875 Z M 220.515625 51.09375 C 230.65625 51.605469 239.660156 53.480469 247.589844 56.527344 C 251.550781 59.839844 254.484375 62.957031 256.566406 65.890625 C 246.875 62.160156 236.050781 59.167969 224.03125 57.019531 C 222.941406 54.832031 221.800781 52.765625 220.511719 51.09375 Z M 187.949219 52.8125 C 187.984375 52.824219 188.015625 52.839844 188.050781 52.847656 L 187.25 52.984375 C 187.488281 52.933594 187.710938 52.863281 187.949219 52.8125 Z M 133.800781 52.898438 C 127.222656 57.554688 122.351562 61.921875 119.34375 65.957031 C 115.621094 67.386719 112.023438 68.890625 108.628906 70.519531 C 112.738281 65.265625 117.617188 60.863281 123.273438 57.429688 C 126.703125 55.777344 130.226562 54.285156 133.800781 52.898438 Z M 186.144531 53.222656 C 186.171875 53.257812 186.203125 53.289062 186.230469 53.324219 C 186.015625 53.335938 185.8125 53.367188 185.601562 53.375 L 185.566406 53.359375 Z M 189.800781 53.359375 L 190.074219 53.445312 L 189.714844 53.425781 Z M 187.777344 54.023438 L 187.964844 54.039062 C 187.941406 54.058594 187.917969 54.070312 187.894531 54.089844 Z M 188.949219 54.074219 C 190.253906 54.121094 191.527344 54.195312 192.8125 54.261719 C 205.222656 57.9375 216.699219 62.203125 227.265625 66.996094 C 227.6875 68.386719 228.046875 69.929688 228.421875 71.421875 C 222.320312 70.644531 216.109375 70.074219 209.835938 69.722656 C 203.175781 64.324219 196.066406 59.230469 188.476562 54.484375 L 188.953125 54.074219 Z M 184.765625 54.089844 C 176.878906 57.96875 169.460938 62.25 162.488281 66.878906 C 162.957031 64.289062 163.484375 61.882812 164.054688 59.691406 C 164.132812 59.390625 164.226562 59.167969 164.308594 58.875 C 169.832031 57.203125 175.5625 55.683594 181.503906 54.296875 C 182.589844 54.230469 183.664062 54.144531 184.765625 54.089844 Z M 186.042969 54.191406 C 186.402344 54.300781 186.734375 54.375 187.097656 54.484375 L 187.214844 54.652344 C 187.113281 54.746094 187.027344 54.8125 186.925781 54.910156 L 186.910156 54.910156 L 186.894531 54.925781 C 183.074219 59.230469 179.519531 64.238281 176.179688 69.722656 C 171.382812 69.980469 166.625 70.359375 161.910156 70.828125 C 162.0625 69.816406 162.183594 68.742188 162.351562 67.78125 C 169.738281 62.847656 177.621094 58.277344 186.042969 54.191406 Z M 195.683594 54.398438 C 205.628906 55 214.910156 56.097656 223.578125 57.632812 C 224.019531 58.535156 224.507812 59.316406 224.921875 60.304688 C 225.664062 62.082031 226.316406 64.078125 226.960938 66.113281 C 217.292969 61.753906 206.878906 57.828125 195.683594 54.398438 Z M 177.335938 54.535156 C 172.953125 55.625 168.714844 56.824219 164.5625 58.074219 C 164.800781 57.246094 165.054688 56.46875 165.3125 55.707031 C 169.210938 55.238281 173.207031 54.839844 177.335938 54.535156 Z M 187.640625 55.199219 C 187.875 55.535156 188.082031 55.746094 188.320312 56.101562 L 188.339844 56.132812 C 189.808594 60.355469 191.203125 64.765625 192.554688 69.261719 C 191.402344 69.265625 190.253906 69.246094 189.105469 69.261719 C 185.609375 69.308594 182.105469 69.40625 178.628906 69.566406 C 178.097656 69.59375 177.574219 69.644531 177.046875 69.671875 C 180.285156 64.398438 183.707031 59.554688 187.386719 55.402344 C 187.472656 55.320312 187.554688 55.277344 187.640625 55.199219 Z M 188.59375 55.332031 C 195.703125 59.804688 202.378906 64.605469 208.660156 69.652344 C 203.546875 69.386719 198.402344 69.261719 193.253906 69.261719 C 191.878906 64.679688 190.464844 60.179688 188.96875 55.878906 L 188.949219 55.84375 L 188.933594 55.792969 C 188.8125 55.613281 188.710938 55.507812 188.59375 55.335938 Z M 247.113281 55.367188 C 248.625 56.035156 250.132812 56.695312 251.621094 57.410156 C 250.445312 56.882812 249.203125 56.4375 247.980469 55.964844 L 247.707031 55.726562 L 247.691406 55.707031 C 247.515625 55.585938 247.292969 55.488281 247.113281 55.367188 Z M 164.546875 55.8125 C 164.277344 56.625 164.011719 57.425781 163.765625 58.3125 C 145.625 63.835938 129.6875 70.847656 115.859375 79 C 115.515625 77.101562 115.617188 75.09375 116.300781 72.9375 C 116.941406 70.914062 118.132812 68.761719 119.804688 66.503906 C 132.671875 61.59375 147.519531 57.921875 164.546875 55.8125 Z M 249.445312 57.257812 C 258.714844 61.113281 266.480469 66.582031 272.828125 73.363281 C 268.136719 70.804688 263.097656 68.441406 257.707031 66.316406 C 255.808594 63.453125 253.058594 60.4375 249.445312 57.257812 Z M 224.410156 57.769531 C 236.574219 59.972656 247.496094 63.046875 257.25 66.878906 C 259.640625 70.539062 260.683594 73.894531 260.53125 76.941406 C 260.511719 77.292969 260.425781 77.632812 260.378906 77.980469 C 260.058594 77.882812 259.761719 77.765625 259.441406 77.671875 C 253.839844 76.046875 247.992188 74.691406 241.996094 73.550781 C 237.464844 71.101562 232.742188 68.742188 227.828125 66.503906 C 227.125 64.21875 226.375 62.03125 225.550781 60.050781 C 225.199219 59.210938 224.78125 58.550781 224.410156 57.769531 Z M 163.507812 59.128906 C 163.472656 59.273438 163.429688 59.378906 163.390625 59.523438 C 162.773438 61.898438 162.238281 64.558594 161.742188 67.386719 C 159.75 68.722656 157.789062 70.085938 155.875 71.476562 C 142.402344 73.078125 129.503906 75.511719 117.78125 78.644531 C 131.070312 70.988281 146.304688 64.402344 163.511719 59.128906 Z M 255.191406 59.214844 C 256.667969 59.976562 258.132812 60.757812 259.578125 61.566406 C 272.730469 68.902344 284.621094 78.167969 294.851562 88.992188 C 289.039062 83.628906 282.308594 78.753906 274.679688 74.417969 C 270.328125 69.484375 265.355469 65.117188 259.578125 61.566406 C 258.1875 60.710938 256.667969 59.980469 255.191406 59.214844 Z M 118.699219 59.742188 C 114.542969 62.851562 110.8125 66.472656 107.609375 70.675781 C 107.472656 70.855469 107.355469 71.054688 107.21875 71.238281 C 92.816406 78.375 81.375 87.304688 72.644531 97.542969 C 85.167969 82.035156 100.824219 69.125 118.699219 59.746094 Z M 118.628906 66.945312 C 117.257812 68.945312 116.242188 70.886719 115.65625 72.734375 C 114.914062 75.066406 114.800781 77.277344 115.210938 79.359375 C 110.875 80.574219 106.652344 81.851562 102.695312 83.257812 C 101.910156 83.535156 101.1875 83.839844 100.417969 84.125 C 102.484375 79.648438 104.902344 75.507812 107.679688 71.765625 C 111.152344 70.046875 114.800781 68.445312 118.628906 66.945312 Z M 258.339844 67.285156 C 264.066406 69.585938 269.347656 72.167969 274.273438 74.964844 C 274.988281 75.78125 275.753906 76.550781 276.433594 77.398438 C 278.753906 80.308594 280.820312 83.433594 282.707031 86.714844 C 276.046875 83.363281 268.789062 80.515625 261.042969 78.183594 C 261.101562 77.78125 261.191406 77.386719 261.214844 76.972656 C 261.363281 73.976562 260.445312 70.75 258.339844 67.285156 Z M 228.132812 67.40625 C 232.195312 69.265625 236.160156 71.1875 239.953125 73.195312 C 236.402344 72.554688 232.800781 72.003906 229.15625 71.527344 C 228.808594 70.152344 228.515625 68.691406 228.132812 67.40625 Z M 161.605469 68.289062 C 161.464844 69.125 161.34375 70.027344 161.214844 70.894531 C 159.902344 71.027344 158.585938 71.136719 157.285156 71.289062 C 158.703125 70.273438 160.144531 69.277344 161.605469 68.289062 Z M 189.105469 69.941406 C 190.324219 69.925781 191.542969 69.945312 192.761719 69.941406 C 195.777344 80.046875 198.496094 90.746094 200.921875 101.882812 C 195.082031 102.230469 189.132812 102.371094 183.21875 102.257812 C 176.066406 102.121094 169.015625 101.605469 162.269531 100.792969 C 166.429688 89.53125 171.210938 79.265625 176.585938 70.382812 C 177.28125 70.347656 177.96875 70.28125 178.664062 70.246094 C 182.132812 70.085938 185.617188 69.988281 189.105469 69.941406 Z M 193.457031 69.941406 C 198.847656 69.949219 204.234375 70.085938 209.582031 70.386719 C 217.742188 77.015625 225.152344 84.109375 231.945312 91.53125 C 232.15625 93.394531 232.371094 95.257812 232.539062 97.199219 C 223.386719 99.578125 212.769531 101.167969 201.621094 101.867188 C 199.199219 90.738281 196.46875 80.050781 193.457031 69.941406 Z M 175.71875 70.4375 C 170.394531 79.304688 165.671875 89.53125 161.554688 100.707031 C 160.835938 100.617188 160.121094 100.515625 159.410156 100.417969 C 159.808594 89.539062 160.578125 79.773438 161.792969 71.523438 C 166.394531 71.0625 171.035156 70.695312 175.71875 70.433594 Z M 210.753906 70.46875 C 216.785156 70.832031 222.746094 71.382812 228.613281 72.136719 C 229.953125 77.613281 231.015625 83.738281 231.808594 90.425781 C 225.367188 83.453125 218.40625 76.742188 210.753906 70.46875 Z M 161.097656 71.59375 C 159.894531 79.828125 159.109375 89.539062 158.714844 100.335938 C 148.253906 98.863281 138.84375 96.542969 131.472656 93.421875 C 138.863281 85.8125 147.097656 78.691406 156.113281 72.136719 C 157.769531 71.941406 159.429688 71.765625 161.097656 71.59375 Z M 229.34375 72.242188 C 233.554688 72.796875 237.71875 73.429688 241.792969 74.199219 C 247.464844 77.273438 252.824219 80.496094 257.898438 83.871094 C 255.832031 86.683594 252.652344 89.207031 248.507812 91.394531 C 245.175781 93.160156 241.191406 94.6875 236.824219 96.027344 C 235.441406 94.414062 234.035156 92.820312 232.589844 91.242188 C 231.796875 84.296875 230.726562 77.929688 229.34375 72.242188 Z M 154.683594 72.324219 C 145.96875 78.746094 138.007812 85.71875 130.824219 93.132812 C 127.6875 91.757812 124.824219 90.28125 122.578125 88.601562 C 119.714844 86.460938 117.65625 84.089844 116.558594 81.484375 C 116.328125 80.949219 116.175781 80.394531 116.03125 79.835938 C 127.859375 76.558594 140.957031 74.019531 154.683594 72.324219 Z M 106.386719 72.410156 C 103.765625 76.097656 101.480469 80.136719 99.515625 84.484375 C 87.984375 88.847656 78.375 93.976562 71.710938 99.773438 C 72.136719 99.246094 72.527344 98.707031 72.96875 98.1875 C 81.429688 88.207031 92.5 79.464844 106.386719 72.410156 Z M 243.917969 74.625 C 249.175781 75.675781 254.304688 76.886719 259.242188 78.320312 C 259.597656 78.421875 259.925781 78.554688 260.28125 78.660156 C 259.949219 80.308594 259.285156 81.863281 258.289062 83.34375 C 253.742188 80.3125 248.949219 77.414062 243.917969 74.625 Z M 276.128906 76.054688 C 286.820312 82.382812 295.640625 89.816406 302.660156 98.121094 C 303.980469 99.683594 305.234375 101.28125 306.433594 102.902344 C 307.515625 104.367188 308.527344 105.855469 309.511719 107.363281 C 302.960938 99.246094 294.15625 92.582031 283.78125 87.222656 C 281.753906 83.601562 279.503906 80.160156 276.960938 76.972656 C 276.703125 76.648438 276.390625 76.371094 276.128906 76.054688 Z M 260.941406 78.863281 C 268.957031 81.285156 276.46875 84.226562 283.289062 87.734375 C 287.519531 95.347656 290.625 103.867188 292.695312 113.035156 C 283.371094 102.507812 272.132812 92.625 258.851562 83.714844 C 259.878906 82.1875 260.589844 80.578125 260.941406 78.863281 Z M 115.382812 80.074219 C 115.53125 80.644531 115.695312 81.210938 115.925781 81.757812 C 117.085938 84.503906 119.238281 86.957031 122.167969 89.148438 C 124.414062 90.824219 127.234375 92.308594 130.3125 93.675781 C 116.742188 107.796875 105.992188 123.480469 97.730469 139.820312 C 97.078125 140.027344 96.386719 140.203125 95.742188 140.414062 C 94.03125 140.976562 92.445312 141.621094 90.792969 142.21875 C 90.203125 124.035156 92.125 106.984375 97.015625 92.605469 C 102.65625 88.191406 108.78125 84.007812 115.382812 80.074219 Z M 113.070312 80.667969 C 107.53125 84.066406 102.324219 87.632812 97.476562 91.378906 C 98.253906 89.1875 99.105469 87.070312 100.027344 85.011719 C 100.996094 84.644531 101.917969 84.257812 102.917969 83.902344 C 106.152344 82.757812 109.570312 81.691406 113.070312 80.667969 Z M 258.460938 84.246094 C 272.078125 93.371094 283.542969 103.527344 292.980469 114.347656 C 295.160156 124.550781 296.007812 135.542969 295.769531 146.933594 C 294.683594 146.472656 293.679688 145.980469 292.558594 145.539062 C 284.0625 142.183594 274.507812 139.34375 264.34375 136.921875 C 257.128906 122.902344 248.140625 109.316406 237.285156 96.585938 C 241.578125 95.253906 245.519531 93.742188 248.832031 91.988281 C 253.039062 89.765625 256.3125 87.175781 258.457031 84.242188 Z M 99.125 85.351562 C 98.152344 87.570312 97.25 89.832031 96.4375 92.195312 C 82.488281 103.152344 71.414062 115.476562 63.039062 128.5625 C 61.417969 123.683594 61.316406 118.394531 63.054688 112.644531 C 63.167969 112.316406 63.382812 112 63.515625 111.671875 C 65.054688 109 66.746094 106.386719 68.582031 103.839844 C 74.929688 96.820312 85.617188 90.539062 99.125 85.351562 Z M 284.359375 88.246094 C 296.992188 94.917969 307.171875 103.574219 313.664062 114.449219 C 315.441406 122.484375 313.777344 129.589844 309.429688 135.867188 C 304.984375 128.398438 299.742188 121.117188 293.648438 114.109375 C 291.640625 104.757812 288.578125 96.042969 284.363281 88.246094 Z M 232.730469 92.347656 C 233.894531 93.636719 235.023438 94.941406 236.148438 96.246094 C 235.203125 96.53125 234.191406 96.769531 233.207031 97.03125 C 233.066406 95.433594 232.898438 93.894531 232.730469 92.347656 Z M 96.066406 93.371094 C 91.355469 107.703125 89.511719 124.539062 90.113281 142.472656 C 86.214844 143.910156 82.46875 145.441406 78.90625 147.105469 C 74.4375 144.132812 70.710938 140.886719 67.902344 137.367188 C 65.890625 134.84375 64.367188 132.164062 63.328125 129.363281 C 71.539062 116.425781 82.386719 104.246094 96.066406 93.371094 Z M 130.964844 93.964844 C 138.472656 97.199219 148.058594 99.550781 158.699219 101.03125 C 158.601562 103.878906 158.511719 106.785156 158.460938 109.765625 C 156.386719 116.117188 154.488281 122.707031 152.765625 129.484375 C 133.425781 131.183594 114.929688 134.488281 98.632812 139.546875 C 106.863281 123.410156 117.523438 107.914062 130.964844 93.964844 Z M 236.605469 96.808594 C 247.371094 109.394531 256.277344 122.839844 263.460938 136.703125 C 254.203125 134.53125 244.441406 132.71875 234.292969 131.355469 C 234.484375 119.378906 234.140625 108.066406 233.257812 97.730469 C 234.386719 97.429688 235.527344 97.136719 236.605469 96.808594 Z M 232.59375 97.898438 C 233.464844 108.15625 233.800781 119.386719 233.613281 131.269531 C 224.871094 130.117188 215.886719 129.296875 206.792969 128.769531 C 205.285156 119.863281 203.625 111.074219 201.777344 102.53125 C 212.871094 101.832031 223.4375 100.269531 232.59375 97.898438 Z M 159.382812 101.117188 L 161.304688 101.371094 C 160.5625 103.40625 159.898438 105.546875 159.195312 107.636719 C 159.238281 105.410156 159.304688 103.269531 159.382812 101.117188 Z M 162.015625 101.457031 C 168.839844 102.28125 175.96875 102.800781 183.207031 102.9375 C 189.179688 103.054688 195.183594 102.917969 201.082031 102.566406 C 202.925781 111.09375 204.589844 119.847656 206.097656 128.734375 C 202.890625 128.550781 199.683594 128.355469 196.457031 128.257812 C 192.011719 128.117188 187.558594 128.054688 183.105469 128.070312 C 175.109375 128.097656 167.136719 128.394531 159.261719 128.9375 C 159.160156 122.410156 159.0625 115.921875 159.160156 109.851562 C 160.089844 107.015625 161.019531 104.1875 162.019531 101.457031 Z M 63.363281 110.398438 C 63.230469 110.675781 63.085938 110.953125 62.96875 111.230469 C 55.238281 124.574219 51.136719 139.402344 50.097656 154.835938 C 47.648438 161.65625 45.808594 168.550781 44.585938 175.488281 C 43.003906 178.261719 41.738281 181.183594 40.777344 184.222656 C 41.421875 157.121094 49.601562 131.859375 63.359375 110.398438 Z M 158.445312 111.964844 C 158.382812 117.40625 158.488281 123.195312 158.582031 128.988281 C 156.878906 129.109375 155.1875 129.269531 153.496094 129.414062 C 155.019531 123.449219 156.648438 117.601562 158.445312 111.964844 Z M 61.847656 114.722656 C 60.679688 119.933594 60.960938 124.808594 62.5625 129.3125 C 57.816406 136.835938 53.960938 144.605469 50.949219 152.519531 C 52.121094 139.230469 55.65625 126.449219 61.847656 114.722656 Z M 293.929688 115.417969 C 299.746094 122.210938 304.757812 129.265625 309.03125 136.480469 C 308.375 137.378906 307.667969 138.253906 306.902344 139.121094 C 304.253906 142.121094 300.824219 144.871094 296.957031 147.445312 L 296.445312 147.226562 C 296.691406 136.144531 295.953125 125.414062 293.929688 115.417969 Z M 314.660156 116.355469 C 322.316406 131.566406 325.632812 148.496094 325.339844 165.9375 C 324.695312 165.234375 324.054688 164.527344 323.347656 163.839844 C 322.851562 163.359375 322.226562 162.917969 321.699219 162.445312 C 318.738281 153.664062 314.785156 144.976562 309.8125 136.515625 C 314 130.574219 315.792969 123.835938 314.660156 116.355469 Z M 316.582031 118.722656 C 327.304688 138.214844 333.585938 160.421875 334.183594 184 C 333.515625 177.734375 330.660156 171.933594 326.003906 166.632812 C 326.375 149.875 323.457031 133.539062 316.582031 118.722656 Z M 183.097656 128.769531 C 187.542969 128.75 191.992188 128.800781 196.429688 128.9375 C 199.699219 129.039062 202.957031 129.230469 206.210938 129.414062 C 208.4375 142.648438 210.195312 156.144531 211.683594 169.597656 C 203.261719 170.140625 194.699219 170.378906 186.140625 170.3125 C 177.640625 170.246094 169.15625 169.867188 160.835938 169.207031 C 160.25 160.269531 159.792969 151.417969 159.492188 142.796875 C 159.332031 138.261719 159.328125 134.023438 159.253906 129.636719 C 167.125 129.09375 175.101562 128.796875 183.097656 128.769531 Z M 206.890625 129.449219 C 215.949219 129.980469 224.882812 130.816406 233.589844 131.96875 C 233.53125 135.480469 233.449219 139.023438 233.300781 142.628906 C 232.96875 150.792969 232.40625 159.179688 231.652344 167.640625 C 225.351562 168.445312 218.917969 169.09375 212.367188 169.527344 C 210.878906 156.105469 209.113281 142.660156 206.890625 129.449219 Z M 158.574219 129.6875 C 158.648438 134.066406 158.652344 138.300781 158.8125 142.832031 C 159.113281 151.425781 159.558594 160.246094 160.140625 169.15625 C 155.273438 168.757812 150.503906 168.222656 145.785156 167.621094 C 147.335938 157.492188 149.179688 147.453125 151.414062 137.726562 C 152.003906 135.160156 152.664062 132.652344 153.300781 130.132812 C 155.058594 129.980469 156.804688 129.816406 158.574219 129.691406 Z M 62.878906 130.078125 C 63.9375 132.777344 65.414062 135.363281 67.351562 137.792969 C 70.140625 141.289062 73.800781 144.503906 78.167969 147.445312 C 66.875 152.808594 57.386719 159.316406 50.585938 167.109375 C 50.441406 163.007812 50.5 158.941406 50.769531 154.902344 C 53.820312 146.433594 57.847656 138.117188 62.878906 130.078125 Z M 152.589844 130.199219 C 151.96875 132.652344 151.324219 135.074219 150.753906 137.570312 C 148.511719 147.316406 146.660156 157.371094 145.105469 167.519531 C 126.242188 165.070312 108.785156 161.042969 94.816406 155.34375 C 93.804688 154.933594 92.917969 154.464844 91.945312 154.035156 C 93.824219 149.4375 95.929688 144.894531 98.203125 140.378906 C 114.523438 135.253906 133.125 131.917969 152.589844 130.199219 Z M 234.273438 132.054688 C 244.585938 133.441406 254.503906 135.28125 263.878906 137.503906 C 267.4375 144.441406 270.53125 151.472656 273.234375 158.546875 C 261.191406 162.597656 247.269531 165.605469 232.332031 167.554688 C 233.082031 159.128906 233.648438 150.777344 233.980469 142.644531 C 234.128906 139.0625 234.210938 135.546875 234.269531 132.054688 Z M 309.390625 137.09375 C 314.085938 145.117188 317.878906 153.332031 320.75 161.644531 C 314.710938 156.453125 306.902344 151.816406 297.6875 147.769531 C 301.4375 145.238281 304.785156 142.539062 307.398438 139.578125 C 308.113281 138.769531 308.769531 137.933594 309.390625 137.09375 Z M 264.765625 137.722656 C 274.679688 140.109375 284.003906 142.894531 292.300781 146.167969 C 293.503906 146.644531 294.585938 147.171875 295.75 147.667969 C 295.746094 147.878906 295.757812 148.085938 295.75 148.296875 C 290.796875 151.4375 285.046875 154.257812 278.574219 156.726562 C 277.085938 157.292969 275.457031 157.792969 273.898438 158.324219 C 271.253906 151.402344 268.226562 144.519531 264.765625 137.722656 Z M 97.285156 140.652344 C 95.1875 144.851562 93.246094 149.082031 91.484375 153.355469 C 91.183594 149.851562 90.925781 146.367188 90.804688 142.933594 C 92.515625 142.308594 94.167969 141.640625 95.941406 141.0625 C 96.375 140.917969 96.84375 140.792969 97.285156 140.652344 Z M 90.125 143.1875 C 90.25 146.585938 90.503906 150.042969 90.804688 153.507812 C 86.738281 151.65625 82.933594 149.699219 79.613281 147.546875 C 82.964844 145.996094 86.46875 144.542969 90.125 143.1875 Z M 78.832031 147.886719 C 82.371094 150.210938 86.480469 152.300781 90.855469 154.273438 C 90.867188 154.421875 90.875 154.566406 90.890625 154.714844 C 81.078125 179.042969 76.699219 204.210938 77.285156 227.539062 C 71.980469 225.246094 67.207031 222.695312 62.898438 219.960938 C 58.316406 209.15625 54.820312 198.066406 52.761719 186.945312 C 51.59375 180.652344 50.886719 174.351562 50.617188 168.117188 C 57.453125 160.078125 67.171875 153.382812 78.832031 147.886719 Z M 297.035156 148.230469 C 306.796875 152.488281 315.011719 157.375 321.167969 162.871094 C 322.636719 167.257812 323.839844 171.65625 324.824219 176.066406 C 324.433594 180.195312 323.851562 184.339844 323.089844 188.480469 C 321.390625 197.675781 318.710938 206.839844 315.316406 215.839844 C 309.695312 219.941406 303.089844 223.671875 295.453125 226.925781 C 292.914062 225.320312 290.203125 223.789062 287.253906 222.363281 C 287.058594 217.164062 286.636719 211.886719 285.980469 206.542969 C 290.488281 192.570312 293.730469 178.324219 295.351562 164.386719 C 295.96875 159.074219 296.28125 153.84375 296.4375 148.65625 C 296.648438 148.519531 296.824219 148.367188 297.035156 148.230469 Z M 295.742188 149.148438 C 295.574219 154.148438 295.265625 159.199219 294.667969 164.320312 C 293.109375 177.734375 290.0625 191.449219 285.808594 204.925781 C 283.828125 189.832031 279.953125 174.320312 274.144531 158.957031 C 275.707031 158.421875 277.339844 157.925781 278.835938 157.355469 C 285.160156 154.941406 290.839844 152.207031 295.742188 149.148438 Z M 91.679688 154.648438 C 92.664062 155.082031 93.550781 155.558594 94.570312 155.976562 C 108.613281 161.703125 126.113281 165.746094 145.011719 168.199219 C 143 181.5 141.582031 194.941406 140.726562 208.144531 C 127.921875 209.972656 115.863281 212.546875 105.164062 215.90625 C 98.316406 196.25 93.617188 175.757812 91.679688 156.113281 C 91.636719 155.6875 91.632812 155.277344 91.59375 154.851562 Z M 91 156.199219 C 92.941406 175.890625 97.644531 196.417969 104.503906 216.113281 C 100.835938 217.28125 97.289062 218.507812 93.976562 219.859375 C 88.09375 222.257812 82.820312 224.953125 78.28125 227.929688 L 77.972656 227.808594 C 77.359375 204.890625 81.53125 180.15625 91 156.195312 Z M 49.929688 157.289062 C 49.765625 160.789062 49.765625 164.328125 49.910156 167.878906 C 48.285156 169.808594 46.855469 171.820312 45.558594 173.90625 C 46.617188 168.332031 48.074219 162.785156 49.929688 157.289062 Z M 273.488281 159.175781 C 279.464844 174.988281 283.375 190.949219 285.289062 206.441406 C 283.871094 210.835938 282.3125 215.183594 280.628906 219.5 C 279.808594 219.167969 279.0625 218.800781 278.214844 218.480469 C 263.886719 213.015625 246.296875 209.25 227.433594 207.070312 C 229.480469 194.230469 231.117188 181.15625 232.28125 168.25 C 247.316406 166.296875 261.34375 163.261719 273.488281 159.175781 Z M 322.089844 163.65625 C 322.335938 163.882812 322.636719 164.089844 322.875 164.320312 C 323.742188 165.160156 324.550781 166.023438 325.324219 166.890625 C 325.269531 169.164062 325.160156 171.445312 324.984375 173.734375 C 324.171875 170.367188 323.183594 167.003906 322.09375 163.65625 Z M 325.988281 167.671875 C 331.191406 173.816406 333.960938 180.589844 333.65625 187.953125 C 333.21875 193.140625 331.441406 197.96875 328.570312 202.457031 C 328.472656 193.722656 327.4375 184.871094 325.476562 176.03125 C 325.738281 173.238281 325.902344 170.449219 325.988281 167.671875 Z M 145.683594 168.304688 C 150.449219 168.910156 155.273438 169.4375 160.1875 169.835938 C 160.980469 181.804688 162.085938 193.835938 163.316406 205.742188 C 155.847656 206.269531 148.527344 207.042969 141.398438 208.042969 C 142.25 194.90625 143.679688 181.535156 145.683594 168.304688 Z M 231.582031 168.335938 C 230.421875 181.1875 228.792969 194.203125 226.753906 206.984375 C 223.085938 206.570312 219.378906 206.222656 215.628906 205.929688 C 214.886719 194.238281 213.757812 182.25 212.433594 170.207031 C 218.9375 169.773438 225.324219 169.132812 231.582031 168.335938 Z M 49.9375 168.917969 C 50.230469 174.933594 50.953125 181 52.078125 187.066406 C 54.09375 197.929688 57.484375 208.761719 61.890625 219.332031 C 58.535156 217.132812 55.402344 214.855469 52.777344 212.382812 C 48.597656 208.445312 45.4375 204.148438 43.386719 199.511719 C 43.234375 191.617188 43.835938 183.648438 45.226562 175.707031 C 46.582031 173.34375 48.15625 171.089844 49.9375 168.914062 Z M 160.886719 169.902344 C 169.191406 170.5625 177.660156 170.929688 186.140625 170.992188 C 194.71875 171.058594 203.308594 170.824219 211.753906 170.277344 C 213.070312 182.277344 214.1875 194.226562 214.933594 205.882812 C 205.273438 205.148438 195.414062 204.765625 185.546875 204.84375 C 178.316406 204.898438 171.117188 205.222656 164 205.710938 C 162.769531 193.835938 161.675781 181.84375 160.886719 169.90625 Z M 44.238281 177.582031 C 43.164062 184.339844 42.652344 191.117188 42.691406 197.84375 C 41.386719 194.371094 40.683594 190.71875 40.703125 186.863281 C 40.703125 186.839844 40.699219 186.816406 40.703125 186.792969 C 40.703125 186.789062 40.703125 186.78125 40.703125 186.777344 C 40.703125 186.769531 40.699219 186.765625 40.703125 186.757812 C 41.519531 183.554688 42.738281 180.503906 44.238281 177.582031 Z M 325.21875 177.992188 C 326.980469 186.5 327.894531 195.03125 327.925781 203.425781 C 325.640625 206.765625 322.761719 209.921875 319.285156 212.875 C 318.394531 213.632812 317.320312 214.324219 316.359375 215.054688 C 319.574219 206.355469 322.101562 197.496094 323.742188 188.613281 C 324.394531 185.070312 324.835938 181.527344 325.21875 177.988281 Z M 334.25 188.632812 C 334.09375 212.238281 328.164062 234.5 317.839844 254.148438 C 323.367188 241.964844 326.871094 228.742188 328.09375 215.023438 C 328.429688 211.257812 328.59375 207.457031 328.585938 203.632812 C 331.714844 199.011719 333.683594 194.007812 334.25 188.632812 Z M 40.855469 194.167969 C 41.292969 196.042969 41.933594 197.871094 42.710938 199.648438 C 42.785156 203.390625 43.011719 207.121094 43.421875 210.816406 C 44.210938 217.910156 45.644531 224.886719 47.625 231.691406 C 43.769531 219.777344 41.441406 207.191406 40.855469 194.164062 Z M 43.457031 201.28125 C 45.542969 205.441406 48.515625 209.3125 52.300781 212.878906 C 55.164062 215.574219 58.613281 218.058594 62.316406 220.421875 C 64.433594 225.402344 66.75 230.3125 69.339844 235.132812 C 68.421875 236.074219 67.542969 237.039062 66.757812 238.027344 C 61.460938 244.664062 59.328125 252.355469 61.210938 260.960938 C 51.929688 245.738281 46.085938 228.578125 44.105469 210.75 C 43.753906 207.613281 43.566406 204.453125 43.457031 201.285156 Z M 327.882812 204.6875 C 327.859375 208.132812 327.726562 211.558594 327.421875 214.953125 C 325.972656 231.203125 321.320312 246.757812 313.867188 260.6875 C 315.648438 251.4375 312.957031 243.289062 306.878906 236.355469 C 310.332031 229.8125 313.292969 223.070312 315.875 216.230469 C 317.160156 215.285156 318.535156 214.378906 319.699219 213.386719 C 322.910156 210.660156 325.65625 207.761719 327.882812 204.6875 Z M 185.535156 205.523438 C 195.429688 205.445312 205.308594 205.820312 214.992188 206.5625 C 215.8125 219.617188 216.167969 232.066406 216.285156 244.035156 C 205.816406 244.871094 195.171875 245.347656 184.515625 245.347656 C 179.296875 245.347656 174.089844 245.222656 168.902344 245.023438 C 167.058594 232.738281 165.464844 219.703125 164.074219 206.390625 C 171.164062 205.90625 178.335938 205.574219 185.535156 205.519531 Z M 163.375 206.425781 C 164.761719 219.714844 166.363281 232.71875 168.207031 244.988281 C 158.78125 244.609375 149.488281 243.875 140.433594 242.828125 C 140.429688 242.492188 140.402344 242.175781 140.402344 241.839844 C 140.28125 231.203125 140.632812 220.0625 141.351562 208.738281 C 148.511719 207.730469 155.867188 206.953125 163.375 206.425781 Z M 215.671875 206.628906 C 219.375 206.917969 223.035156 207.257812 226.65625 207.667969 C 224.660156 220.09375 222.242188 232.234375 219.515625 243.765625 L 216.964844 243.984375 C 216.847656 232.054688 216.488281 219.636719 215.671875 206.628906 Z M 227.320312 207.753906 C 246.152344 209.925781 263.707031 213.671875 277.964844 219.109375 C 278.808594 219.429688 279.546875 219.796875 280.363281 220.132812 C 278.488281 224.917969 276.457031 229.621094 274.277344 234.261719 C 258.03125 238.847656 239.527344 241.972656 220.230469 243.710938 C 222.941406 232.21875 225.332031 220.128906 227.320312 207.75 Z M 285.449219 208.078125 C 285.992188 212.789062 286.355469 217.441406 286.539062 222.039062 C 284.863281 221.242188 283.039062 220.511719 281.25 219.773438 C 282.753906 215.902344 284.152344 212.007812 285.449219 208.078125 Z M 140.65625 208.84375 C 139.941406 220.128906 139.601562 231.230469 139.71875 241.839844 C 139.722656 242.144531 139.734375 242.4375 139.738281 242.742188 C 130.929688 241.703125 122.40625 240.34375 114.261719 238.671875 C 110.988281 231.484375 108.015625 224.101562 105.367188 216.554688 C 115.972656 213.226562 127.945312 210.664062 140.65625 208.84375 Z M 104.703125 216.742188 C 107.304688 224.152344 110.226562 231.414062 113.429688 238.484375 C 103.304688 236.371094 93.742188 233.828125 85.179688 230.722656 C 83.046875 229.945312 81.070312 229.089844 79.058594 228.25 C 83.464844 225.40625 88.527344 222.804688 94.210938 220.488281 C 97.511719 219.140625 101.042969 217.90625 104.703125 216.742188 Z M 314.820312 217.03125 C 312.363281 223.40625 309.585938 229.695312 306.367188 235.8125 C 303.582031 232.753906 300.066406 229.960938 296.0625 227.367188 C 303.171875 224.308594 309.433594 220.84375 314.820312 217.03125 Z M 280.992188 220.402344 C 282.886719 221.183594 284.8125 221.945312 286.570312 222.785156 C 286.660156 225.304688 286.707031 227.804688 286.691406 230.277344 L 285.175781 230.855469 C 281.964844 231.96875 278.605469 233.007812 275.175781 233.988281 C 277.261719 229.527344 279.191406 224.996094 280.992188 220.402344 Z M 63.308594 221.03125 C 67.53125 223.640625 72.167969 226.058594 77.289062 228.253906 C 77.289062 228.359375 77.285156 228.46875 77.289062 228.574219 C 74.488281 230.480469 72 232.5 69.839844 234.636719 C 67.445312 230.183594 65.292969 225.628906 63.308594 221.03125 Z M 287.277344 223.160156 C 289.910156 224.449219 292.394531 225.800781 294.691406 227.230469 C 292.351562 228.210938 289.871094 229.121094 287.378906 230.023438 C 287.390625 227.753906 287.351562 225.46875 287.277344 223.160156 Z M 295.355469 227.691406 C 299.558594 230.382812 303.199219 233.304688 306.050781 236.476562 C 299.363281 249.058594 291.074219 260.878906 281.648438 271.515625 C 284.644531 261.457031 286.53125 250.445312 287.191406 238.792969 C 287.339844 236.15625 287.335938 233.449219 287.363281 230.753906 C 290.097656 229.769531 292.804688 228.769531 295.355469 227.691406 Z M 78.355469 228.679688 C 80.523438 229.585938 82.667969 230.515625 84.972656 231.351562 C 93.707031 234.519531 103.453125 237.113281 113.78125 239.25 C 116.566406 245.351562 119.507812 251.332031 122.710938 257.042969 C 127.433594 265.476562 132.632812 273.355469 138.167969 280.625 C 130.621094 282.933594 124.304688 285.769531 120.003906 289.15625 C 119.113281 289.859375 118.339844 290.601562 117.625 291.351562 C 103.382812 280.386719 90.820312 266.847656 80.480469 251.851562 C 79.140625 244.820312 78.285156 237.5 77.980469 229.953125 C 77.96875 229.628906 77.992188 229.292969 77.980469 228.96875 C 78.117188 228.875 78.21875 228.769531 78.355469 228.679688 Z M 77.300781 229.476562 C 77.308594 229.644531 77.296875 229.820312 77.300781 229.988281 C 77.585938 237.050781 78.390625 243.898438 79.582031 250.523438 C 76.222656 245.554688 73.050781 240.488281 70.210938 235.25 C 72.246094 233.21875 74.667969 231.308594 77.300781 229.476562 Z M 286.6875 231.011719 C 286.660156 233.605469 286.660156 236.21875 286.519531 238.757812 C 285.828125 250.941406 283.761719 262.382812 280.515625 272.773438 C 278.910156 274.550781 277.355469 276.371094 275.683594 278.070312 C 270.449219 283.398438 264.839844 288.257812 259.019531 292.746094 C 256.84375 288.609375 252.480469 285.210938 246.65625 282.480469 C 246.0625 282.203125 245.371094 281.976562 244.75 281.714844 C 249.789062 275.902344 254.570312 269.703125 258.984375 263.085938 C 264.894531 254.234375 270.128906 244.707031 274.785156 234.839844 C 278.441406 233.800781 281.996094 232.683594 285.414062 231.503906 C 285.855469 231.347656 286.25 231.164062 286.6875 231.007812 Z M 273.914062 235.0625 C 269.332031 244.714844 264.191406 254.042969 258.40625 262.714844 C 253.964844 269.367188 249.160156 275.609375 244.085938 281.441406 C 236.574219 278.367188 227.046875 276.230469 216.503906 274.988281 C 216.800781 269.035156 217.007812 262.839844 217.082031 256.277344 C 217.878906 253.3125 218.675781 250.34375 219.425781 247.269531 C 219.65625 246.335938 219.867188 245.355469 220.089844 244.410156 C 239.28125 242.691406 257.691406 239.597656 273.917969 235.0625 Z M 69.699219 235.742188 C 72.761719 241.378906 76.175781 246.855469 79.835938 252.175781 C 82.40625 265.539062 86.890625 277.738281 93.050781 288.269531 C 84.46875 284.5625 77.269531 280.378906 71.929688 275.824219 C 68.410156 271.648438 65.21875 267.253906 62.320312 262.679688 C 59.699219 253.484375 61.722656 245.445312 67.304688 238.453125 C 68.039062 237.53125 68.84375 236.628906 69.699219 235.746094 Z M 306.535156 237.019531 C 312.5625 243.988281 315.136719 252.058594 313.082031 261.367188 C 304.8125 275.222656 290.492188 285.402344 272.8125 292.542969 C 276.105469 286.644531 278.890625 280.171875 281.09375 273.167969 C 290.949219 262.246094 299.59375 250.046875 306.535156 237.023438 Z M 114.632812 239.4375 C 122.679688 241.078125 131.089844 242.402344 139.765625 243.421875 C 139.964844 256.367188 140.808594 268.515625 142.234375 279.484375 C 141.097656 279.785156 139.972656 280.097656 138.882812 280.421875 C 133.304688 273.117188 128.066406 265.199219 123.304688 256.703125 C 120.203125 251.164062 117.347656 245.347656 114.632812 239.4375 Z M 140.464844 243.507812 C 149.539062 244.558594 158.859375 245.289062 168.304688 245.671875 C 168.441406 246.585938 168.554688 247.589844 168.695312 248.496094 C 170.121094 257.699219 171.65625 266.359375 173.289062 274.429688 C 162.386719 275.316406 151.957031 276.953125 142.914062 279.296875 C 141.5 268.417969 140.664062 256.347656 140.464844 243.507812 Z M 219.375 244.476562 C 219.167969 245.347656 218.972656 246.253906 218.761719 247.117188 C 218.222656 249.324219 217.644531 251.433594 217.078125 253.585938 C 217.097656 250.714844 217 247.648438 216.976562 244.683594 Z M 216.296875 244.734375 C 216.328125 248.382812 216.449219 252.195312 216.414062 255.699219 C 216.414062 255.859375 216.398438 255.996094 216.398438 256.15625 C 214.671875 262.554688 212.839844 268.652344 210.90625 274.425781 C 203.929688 273.824219 196.667969 273.546875 189.339844 273.644531 C 186.199219 273.6875 183.050781 273.785156 179.917969 273.949219 C 177.925781 274.054688 175.957031 274.222656 173.984375 274.375 C 172.347656 266.296875 170.804688 257.613281 169.375 248.394531 C 169.242188 247.53125 169.132812 246.578125 169 245.703125 C 174.160156 245.902344 179.332031 246.027344 184.527344 246.027344 C 195.179688 246.027344 205.828125 245.566406 216.296875 244.734375 Z M 80.855469 253.65625 C 91.035156 268.144531 103.308594 281.199219 117.148438 291.863281 C 116.050781 293.101562 115.199219 294.394531 114.628906 295.761719 C 110.363281 294.5625 106.207031 293.3125 102.316406 291.929688 C 99.449219 290.914062 96.71875 289.839844 94.085938 288.730469 C 87.984375 278.519531 83.519531 266.660156 80.855469 253.65625 Z M 216.3125 259.222656 C 216.222656 264.644531 216.070312 269.914062 215.820312 274.902344 C 214.425781 274.746094 213.027344 274.605469 211.601562 274.476562 C 213.234375 269.59375 214.828125 264.554688 216.3125 259.222656 Z M 311.753906 264.5 C 311.300781 265.273438 310.832031 266.039062 310.359375 266.800781 C 304.824219 275.140625 298.472656 282.910156 291.363281 289.9375 L 291.261719 290.039062 C 282.136719 298.449219 271.425781 305.382812 259.339844 310.4375 C 264.300781 305.679688 268.570312 299.925781 272.265625 293.496094 C 289.1875 286.792969 303.0625 277.285156 311.753906 264.5 Z M 189.359375 274.324219 C 196.597656 274.230469 203.777344 274.515625 210.667969 275.109375 C 206.605469 287.132812 202.125 297.65625 197.300781 305.859375 C 192.199219 305.9375 187.09375 305.878906 181.996094 305.703125 C 179.226562 297.5 176.570312 287.0625 174.121094 275.058594 C 176.0625 274.90625 177.992188 274.738281 179.953125 274.632812 C 183.078125 274.46875 186.226562 274.367188 189.359375 274.328125 Z M 279.953125 274.425781 C 277.75 281.125 275.011719 287.3125 271.789062 292.953125 C 268.117188 294.398438 264.332031 295.746094 260.394531 296.9375 C 260.207031 295.710938 259.808594 294.546875 259.289062 293.429688 C 265.195312 288.890625 270.875 283.960938 276.179688 278.566406 C 277.484375 277.234375 278.6875 275.800781 279.953125 274.425781 Z M 173.441406 275.109375 C 175.871094 287.046875 178.507812 297.453125 181.28125 305.6875 C 180.210938 305.648438 179.136719 305.636719 178.066406 305.585938 C 172.527344 305.328125 167.039062 304.878906 161.605469 304.34375 C 155.417969 299.316406 149.53125 293.40625 143.96875 286.824219 C 143.609375 284.632812 143.304688 282.304688 143 279.996094 C 152.035156 277.644531 162.503906 276 173.441406 275.109375 Z M 211.382812 275.160156 C 212.875 275.292969 214.34375 275.453125 215.804688 275.617188 C 215.222656 286.824219 214.246094 296.832031 212.878906 305.175781 C 207.972656 305.519531 203.042969 305.765625 198.082031 305.855469 C 202.898438 297.609375 207.351562 287.121094 211.382812 275.160156 Z M 216.484375 275.703125 C 226.867188 276.933594 236.242188 279 243.625 281.988281 C 235.933594 290.757812 227.574219 298.476562 218.644531 304.75 C 216.96875 304.902344 215.277344 305 213.59375 305.125 C 214.953125 296.792969 215.910156 286.828125 216.484375 275.703125 Z M 71.554688 276.417969 L 71.65625 276.503906 C 80.585938 287.03125 91.433594 296.171875 104.035156 303.339844 C 105.039062 304.414062 106.058594 305.460938 107.113281 306.472656 C 111.242188 310.414062 115.789062 313.804688 120.71875 316.617188 C 101.476562 306.898438 84.714844 293.125 71.554688 276.417969 Z M 74.480469 278.71875 C 79.671875 282.5625 86.136719 286.085938 93.628906 289.257812 C 96.316406 293.726562 99.253906 297.933594 102.574219 301.703125 C 91.855469 295.367188 82.453125 287.582031 74.480469 278.71875 Z M 142.320312 280.183594 C 142.570312 282.050781 142.816406 283.9375 143.101562 285.734375 C 141.832031 284.203125 140.59375 282.617188 139.359375 281.015625 Z M 138.644531 281.203125 C 140.183594 283.207031 141.710938 285.21875 143.304688 287.113281 C 144.230469 292.691406 145.363281 297.808594 146.640625 302.519531 C 140.558594 301.617188 134.621094 300.550781 128.902344 299.320312 C 125.21875 296.976562 121.632812 294.445312 118.136719 291.777344 C 118.820312 291.0625 119.558594 290.359375 120.414062 289.683594 C 124.660156 286.339844 131.019531 283.507812 138.644531 281.203125 Z M 244.289062 282.257812 C 244.972656 282.546875 245.71875 282.808594 246.363281 283.109375 C 252.175781 285.832031 256.398438 289.195312 258.457031 293.207031 C 255.316406 295.605469 252.121094 297.902344 248.832031 300.015625 C 239.628906 302.132812 229.949219 303.667969 220.023438 304.632812 C 228.695312 298.410156 236.804688 290.816406 244.292969 282.257812 Z M 144.242188 288.253906 C 149.347656 294.199219 154.730469 299.5625 160.363281 304.222656 C 155.984375 303.773438 151.644531 303.277344 147.386719 302.65625 C 146.183594 298.25 145.136719 293.445312 144.242188 288.253906 Z M 94.648438 289.714844 C 97.039062 290.703125 99.523438 291.664062 102.097656 292.578125 C 105.976562 293.953125 110.113281 295.210938 114.359375 296.40625 C 113.460938 299 113.570312 301.800781 114.871094 304.75 C 115.523438 306.230469 116.484375 307.738281 117.742188 309.296875 C 113.136719 307.367188 108.699219 305.21875 104.480469 302.828125 C 100.828125 298.898438 97.570312 294.472656 94.648438 289.714844 Z M 117.675781 292.289062 C 120.742188 294.628906 123.890625 296.835938 127.097656 298.929688 C 123.03125 298.023438 119.117188 297.007812 115.296875 295.949219 C 115.832031 294.683594 116.636719 293.460938 117.675781 292.289062 Z M 258.746094 293.871094 C 259.214844 294.921875 259.5625 296.003906 259.730469 297.140625 C 259.363281 297.25 259.015625 297.390625 258.644531 297.496094 C 256.132812 298.226562 253.539062 298.878906 250.941406 299.507812 C 253.601562 297.742188 256.183594 295.820312 258.746094 293.871094 Z M 271.246094 293.886719 C 267.449219 300.339844 263.082031 306.101562 257.996094 310.796875 L 257.488281 311.238281 C 256.757812 311.527344 256 311.777344 255.257812 312.054688 C 259.292969 306.675781 260.902344 301.871094 260.464844 297.617188 C 264.175781 296.496094 267.761719 295.234375 271.246094 293.886719 Z M 115.007812 296.59375 C 119.382812 297.8125 123.898438 298.9375 128.59375 299.949219 C 135.214844 304.15625 142.109375 307.8125 149.238281 310.828125 C 150.257812 313.609375 151.328125 316.214844 152.503906 318.492188 C 140.535156 316.964844 129.410156 314.023438 119.191406 309.894531 C 117.515625 308.015625 116.261719 306.203125 115.5 304.476562 C 114.253906 301.652344 114.15625 299.035156 115.007812 296.59375 Z M 259.78125 297.839844 C 260.167969 302.058594 258.488281 306.917969 254.101562 312.480469 C 240.960938 317.222656 226.296875 319.757812 210.292969 319.597656 C 210.539062 318.820312 210.792969 318.101562 211.027344 317.265625 C 224.421875 314.03125 237.238281 308.289062 249.136719 300.648438 C 252.429688 299.886719 255.671875 299.0625 258.832031 298.144531 C 259.15625 298.050781 259.460938 297.933594 259.78125 297.839844 Z M 281.566406 298.757812 C 271.6875 306.914062 260.699219 313.800781 248.863281 319.1875 L 248.878906 319.15625 C 249.488281 318.578125 250.007812 318.019531 250.5625 317.453125 C 253.144531 315.761719 255.601562 313.851562 257.929688 311.75 C 266.511719 308.316406 274.402344 303.925781 281.566406 298.757812 Z M 130.480469 300.339844 C 135.777344 301.441406 141.21875 302.425781 146.808594 303.253906 C 147.464844 305.625 148.183594 307.828125 148.933594 309.945312 C 142.589844 307.222656 136.421875 304.019531 130.480469 300.339844 Z M 247.230469 301.054688 C 235.925781 308.113281 223.832031 313.425781 211.210938 316.515625 C 211.789062 314.335938 212.332031 311.941406 212.828125 309.382812 C 214.878906 308.128906 216.902344 306.796875 218.898438 305.398438 C 228.644531 304.496094 238.144531 303.058594 247.230469 301.054688 Z M 147.574219 303.371094 C 152.089844 304.027344 156.699219 304.542969 161.347656 305.007812 C 168.867188 311.089844 176.8125 315.902344 185.105469 319.15625 L 184.324219 319.222656 C 172.410156 318.027344 160.835938 314.941406 149.800781 310.300781 C 149.015625 308.125 148.261719 305.835938 147.574219 303.371094 Z M 106.042969 304.410156 C 110.105469 306.621094 114.339844 308.628906 118.746094 310.421875 C 121.84375 313.875 126.6875 317.550781 133.101562 321.386719 C 123.375 318.167969 114.832031 312.914062 107.574219 305.976562 C 107.046875 305.472656 106.554688 304.929688 106.042969 304.410156 Z M 162.605469 305.140625 C 167.703125 305.628906 172.84375 306.027344 178.03125 306.265625 L 181.5 306.367188 C 183.257812 311.5 185.058594 315.78125 186.910156 318.96875 C 186.8125 318.976562 186.714844 318.992188 186.621094 319 C 178.253906 315.898438 170.214844 311.179688 162.609375 305.140625 Z M 217.554688 305.5 C 216.046875 306.535156 214.519531 307.527344 212.980469 308.480469 C 213.144531 307.605469 213.320312 306.738281 213.472656 305.824219 Z M 212.761719 305.875 C 212.582031 306.9375 212.375 307.964844 212.179688 308.972656 C 205.570312 312.984375 198.683594 316.203125 191.570312 318.507812 C 190.542969 318.628906 189.527344 318.710938 188.507812 318.8125 L 188.578125 318.746094 C 188.585938 318.738281 188.585938 318.722656 188.59375 318.710938 C 191.757812 315.578125 194.804688 311.453125 197.726562 306.539062 C 202.765625 306.453125 207.773438 306.222656 212.761719 305.875 Z M 182.214844 306.386719 C 187.113281 306.546875 192.023438 306.609375 196.925781 306.539062 C 194.085938 311.28125 191.144531 315.242188 188.101562 318.253906 L 188.082031 318.269531 L 188.066406 318.269531 C 187.898438 318.46875 187.742188 318.585938 187.574219 318.78125 C 185.757812 315.683594 183.960938 311.464844 182.214844 306.386719 Z M 212.027344 309.875 C 211.542969 312.320312 211.023438 314.605469 210.464844 316.6875 C 206.242188 317.6875 201.960938 318.433594 197.640625 318.917969 C 196.324219 318.789062 195.007812 318.667969 193.679688 318.507812 C 199.992188 316.304688 206.121094 313.414062 212.027344 309.875 Z M 120.226562 311.035156 C 130.289062 314.976562 141.214844 317.769531 152.933594 319.222656 C 154.105469 321.394531 155.351562 323.328125 156.691406 324.960938 C 149.332031 325.023438 142.453125 324.117188 136.0625 322.320312 C 129.023438 318.347656 123.683594 314.554688 120.226562 311.035156 Z M 150.089844 311.1875 C 159.792969 315.210938 169.894531 318.03125 180.292969 319.445312 C 170.902344 319.933594 161.90625 319.632812 153.339844 318.59375 C 153.296875 318.511719 153.246094 318.453125 153.203125 318.371094 C 152.085938 316.234375 151.0625 313.796875 150.089844 311.1875 Z M 256.089844 312.445312 C 255.027344 313.351562 253.9375 314.210938 252.824219 315.035156 C 253.425781 314.355469 254.035156 313.671875 254.558594 313.007812 Z M 253.234375 313.503906 C 252.3125 314.605469 251.285156 315.734375 250.15625 316.890625 C 238.585938 324.476562 224.5 327.730469 208.148438 325.199219 C 208.484375 324.484375 208.835938 323.863281 209.152344 323.054688 C 209.480469 322.214844 209.765625 321.199219 210.070312 320.261719 C 225.789062 320.441406 240.242188 318.042969 253.234375 313.5 Z M 210.292969 317.433594 C 210.074219 318.222656 209.808594 318.851562 209.578125 319.582031 C 206.734375 319.539062 203.863281 319.421875 200.9375 319.207031 C 204.089844 318.757812 207.199219 318.160156 210.292969 317.433594 Z M 192.605469 319.085938 L 192.691406 319.085938 L 194.425781 319.273438 C 193.25 319.367188 192.070312 319.390625 190.886719 319.445312 C 191.152344 319.363281 191.40625 319.257812 191.667969 319.171875 C 191.984375 319.136719 192.289062 319.125 192.605469 319.085938 Z M 153.796875 319.34375 C 163.445312 320.480469 173.617188 320.710938 184.289062 319.902344 C 184.90625 319.964844 185.527344 320.023438 186.144531 320.074219 C 185.597656 320.214844 185.058594 320.390625 184.511719 320.515625 L 184.492188 320.515625 C 174.90625 323.386719 165.925781 324.785156 157.539062 324.945312 C 156.210938 323.382812 154.980469 321.46875 153.796875 319.34375 Z M 188.183594 319.53125 C 188.148438 319.539062 188.117188 319.554688 188.082031 319.5625 L 188.03125 319.546875 Z M 197.671875 319.597656 C 201.640625 319.976562 205.535156 320.199219 209.355469 320.261719 C 209.078125 321.105469 208.820312 322.039062 208.523438 322.796875 C 208.1875 323.664062 207.808594 324.332031 207.453125 325.078125 C 201.804688 324.152344 195.886719 322.539062 189.714844 320.175781 C 192.382812 320.085938 195.039062 319.890625 197.675781 319.597656 Z M 187.691406 320.347656 C 189.824219 324.152344 191.851562 327.121094 193.777344 329.117188 C 194.851562 330.226562 195.902344 331.066406 196.925781 331.652344 C 195.820312 331.703125 194.71875 331.792969 193.609375 331.824219 C 186.136719 332.027344 178.6875 331.78125 171.601562 331.160156 C 176.273438 330.125 181.382812 326.6875 186.941406 320.550781 Z M 188.558594 320.464844 C 195.039062 323.015625 201.234375 324.726562 207.164062 325.710938 C 206.308594 327.394531 205.425781 328.867188 204.476562 329.863281 C 203.851562 330.519531 203.226562 330.996094 202.570312 331.34375 C 201.183594 331.449219 199.785156 331.511719 198.386719 331.582031 C 197.105469 331.109375 195.734375 330.171875 194.273438 328.65625 C 192.488281 326.808594 190.566406 323.996094 188.558594 320.464844 Z M 245.1875 320.566406 C 244.691406 320.851562 244.246094 321.164062 243.726562 321.4375 L 241.109375 322.457031 C 242.496094 321.886719 243.855469 321.246094 245.1875 320.566406 Z M 185.496094 320.941406 C 179.058594 327.742188 173.296875 330.929688 168.304688 330.816406 C 167.449219 330.726562 166.609375 330.632812 165.769531 330.527344 C 162.992188 329.855469 160.425781 328.167969 158.082031 325.589844 C 166.378906 325.386719 175.234375 324 184.664062 321.179688 L 184.699219 321.164062 Z M 131.960938 321.726562 C 133.214844 322.160156 134.472656 322.585938 135.769531 322.953125 C 136.214844 323.203125 136.582031 323.445312 137.042969 323.699219 C 135.324219 323.082031 133.648438 322.40625 131.960938 321.726562 Z M 239.609375 323.035156 C 231.542969 326.066406 223.132812 328.390625 214.457031 329.984375 C 211.035156 330.496094 207.546875 330.910156 204 331.210938 C 204.328125 330.945312 204.652344 330.671875 204.96875 330.339844 C 206.015625 329.238281 206.960938 327.640625 207.859375 325.828125 C 219.605469 327.671875 230.234375 326.578125 239.609375 323.035156 Z M 138.097656 323.53125 C 144.066406 324.996094 150.445312 325.722656 157.214844 325.625 C 158.988281 327.660156 160.910156 329.191406 162.960938 330.1875 C 158.265625 329.523438 153.847656 328.671875 149.832031 327.652344 C 149.300781 327.511719 148.78125 327.351562 148.25 327.207031 C 144.722656 326.242188 141.492188 325.15625 138.761719 323.921875 C 138.753906 323.917969 138.75 323.910156 138.742188 323.90625 C 138.5 323.777344 138.335938 323.660156 138.097656 323.53125 Z M 138.097656 323.53125 " fill-opacity="1" fill-rule="evenodd"/></g><g clip-path="url(#id2)"><path fill="#000000" d="M 0.0195312 157.679688 L 374.980469 157.679688 L 374.980469 217.679688 L 0.0195312 217.679688 L 0.0195312 157.679688 " fill-opacity="1" fill-rule="nonzero"/></g><g fill="#ffffff" fill-opacity="1"><g transform="translate(12.12891, 206.078482)"><g><path d="M 1.625 0 L 19.207031 0 L 19.207031 -6.382812 L 18.140625 -15.285156 L 18.925781 -15.285156 L 21.167969 -7.953125 L 31.1875 -7.953125 L 33.429688 -15.285156 L 34.214844 -15.285156 L 33.148438 -6.382812 L 33.148438 0 L 50.730469 0 L 50.730469 -39.195312 L 30.125 -39.195312 L 27.101562 -32.085938 L 26.542969 -24.972656 L 25.757812 -24.972656 L 25.308594 -32.085938 L 22.285156 -39.195312 L 1.625 -39.195312 Z M 1.625 0 "/></g></g></g><g fill="#ffffff" fill-opacity="1"><g transform="translate(64.481598, 206.078482)"><g><path d="M 9.632812 0 L 29.339844 0 L 29.339844 -22.847656 L 38.300781 -22.847656 L 38.300781 -39.195312 L 0.671875 -39.195312 L 0.671875 -22.847656 L 9.632812 -22.847656 Z M 9.632812 0 "/></g></g></g><g fill="#ffffff" fill-opacity="1"><g transform="translate(103.452161, 206.078482)"><g><path d="M 1.625 0 L 34.492188 0 L 34.492188 -16.351562 L 21.277344 -16.351562 L 21.277344 -39.195312 L 1.625 -39.195312 Z M 1.625 0 "/></g></g></g><g fill="#ffffff" fill-opacity="1"><g transform="translate(138.615253, 206.078482)"><g/></g></g><g fill="#ffffff" fill-opacity="1"><g transform="translate(146.006224, 206.078482)"><g><path d="M 1.625 0 L 19.484375 0 L 19.484375 -7.113281 L 22.734375 -7.113281 C 33.203125 -7.113281 41.378906 -12.375 41.378906 -23.351562 C 41.378906 -35.054688 33.652344 -39.195312 22.679688 -39.195312 L 1.625 -39.195312 Z M 19.484375 -19.597656 L 19.484375 -25.925781 L 20.496094 -25.925781 C 21.390625 -25.925781 21.839844 -25.476562 21.839844 -24.804688 L 21.839844 -20.71875 C 21.839844 -20.046875 21.335938 -19.597656 20.605469 -19.597656 Z M 19.484375 -19.597656 "/></g></g></g><g fill="#ffffff" fill-opacity="1"><g transform="translate(187.77639, 206.078482)"><g><path d="M -0.503906 0 L 20.4375 0 L 21.335938 -4.589844 L 25.703125 -4.589844 L 26.597656 0 L 47.539062 0 L 34.046875 -39.195312 L 12.992188 -39.195312 Z M 22.175781 -15.117188 L 23.070312 -24.695312 L 23.964844 -24.695312 L 24.804688 -15.117188 Z M 22.175781 -15.117188 "/></g></g></g><g fill="#ffffff" fill-opacity="1"><g transform="translate(234.809819, 206.078482)"><g><path d="M 1.625 0 L 19.710938 0 L 19.710938 -6.945312 L 18.589844 -12.039062 L 19.375 -12.039062 L 24.359375 0 L 45.019531 0 L 37.011719 -12.933594 C 39.699219 -15.285156 41.4375 -18.925781 41.4375 -24.414062 C 41.4375 -35.164062 34.492188 -39.195312 24.078125 -39.195312 L 1.625 -39.195312 Z M 19.542969 -21.390625 L 19.542969 -25.925781 L 20.605469 -25.925781 C 21.167969 -25.925781 21.894531 -25.703125 21.894531 -24.804688 L 21.894531 -22.453125 C 21.894531 -21.78125 21.390625 -21.390625 20.664062 -21.390625 Z M 19.542969 -21.390625 "/></g></g></g><g fill="#ffffff" fill-opacity="1"><g transform="translate(278.091784, 206.078482)"><g><path d="M 9.632812 0 L 29.339844 0 L 29.339844 -22.847656 L 38.300781 -22.847656 L 38.300781 -39.195312 L 0.671875 -39.195312 L 0.671875 -22.847656 L 9.632812 -22.847656 Z M 9.632812 0 "/></g></g></g><g fill="#ffffff" fill-opacity="1"><g transform="translate(317.062347, 206.078482)"><g><path d="M 13.214844 0 L 32.53125 0 L 32.53125 -12.320312 L 46.25 -39.195312 L 25.140625 -39.195312 L 22.0625 -26.988281 L 21.277344 -26.988281 L 22.175781 -33.933594 L 20.269531 -39.195312 L -0.335938 -39.195312 L 13.214844 -12.320312 Z M 13.214844 0 "/></g></g></g></svg>